<svg xmlns="http://www.w3.org/2000/svg" viewBox="0 0 600 320" width="600" height="320" role="img" aria-label="No chart data available">
  <!-- Background: transparent — inherits dark surface from parent -->

  <!-- Subtle grid lines -->
  <line x1="0" y1="80" x2="600" y2="80" stroke="#1e2530" stroke-width="1"/>
  <line x1="0" y1="160" x2="600" y2="160" stroke="#1e2530" stroke-width="1"/>
  <line x1="0" y1="240" x2="600" y2="240" stroke="#1e2530" stroke-width="1"/>
  <line x1="150" y1="0" x2="150" y2="320" stroke="#1e2530" stroke-width="1"/>
  <line x1="300" y1="0" x2="300" y2="320" stroke="#1e2530" stroke-width="1"/>
  <line x1="450" y1="0" x2="450" y2="320" stroke="#1e2530" stroke-width="1"/>

  <!-- Ghost candlestick bars — muted, dashed outline only -->
  <!-- Bar 1 -->
  <rect x="60" y="180" width="28" height="70" rx="2" fill="none" stroke="#22d3ee" stroke-width="1.5" stroke-dasharray="4 3" opacity="0.2"/>
  <line x1="74" y1="160" x2="74" y2="180" stroke="#22d3ee" stroke-width="1.5" stroke-dasharray="4 3" opacity="0.2"/>
  <line x1="74" y1="250" x2="74" y2="268" stroke="#22d3ee" stroke-width="1.5" stroke-dasharray="4 3" opacity="0.2"/>
  <!-- Bar 2 -->
  <rect x="110" y="140" width="28" height="90" rx="2" fill="none" stroke="#22d3ee" stroke-width="1.5" stroke-dasharray="4 3" opacity="0.2"/>
  <line x1="124" y1="120" x2="124" y2="140" stroke="#22d3ee" stroke-width="1.5" stroke-dasharray="4 3" opacity="0.2"/>
  <line x1="124" y1="230" x2="124" y2="252" stroke="#22d3ee" stroke-width="1.5" stroke-dasharray="4 3" opacity="0.2"/>
  <!-- Bar 3 -->
  <rect x="160" y="160" width="28" height="60" rx="2" fill="none" stroke="#f87171" stroke-width="1.5" stroke-dasharray="4 3" opacity="0.2"/>
  <line x1="174" y1="148" x2="174" y2="160" stroke="#f87171" stroke-width="1.5" stroke-dasharray="4 3" opacity="0.2"/>
  <line x1="174" y1="220" x2="174" y2="238" stroke="#f87171" stroke-width="1.5" stroke-dasharray="4 3" opacity="0.2"/>
  <!-- Bar 4 -->
  <rect x="210" y="190" width="28" height="50" rx="2" fill="none" stroke="#22d3ee" stroke-width="1.5" stroke-dasharray="4 3" opacity="0.2"/>
  <line x1="224" y1="174" x2="224" y2="190" stroke="#22d3ee" stroke-width="1.5" stroke-dasharray="4 3" opacity="0.2"/>
  <line x1="224" y1="240" x2="224" y2="256" stroke="#22d3ee" stroke-width="1.5" stroke-dasharray="4 3" opacity="0.2"/>
  <!-- Bar 5 -->
  <rect x="380" y="150" width="28" height="80" rx="2" fill="none" stroke="#f87171" stroke-width="1.5" stroke-dasharray="4 3" opacity="0.2"/>
  <line x1="394" y1="132" x2="394" y2="150" stroke="#f87171" stroke-width="1.5" stroke-dasharray="4 3" opacity="0.2"/>
  <line x1="394" y1="230" x2="394" y2="248" stroke="#f87171" stroke-width="1.5" stroke-dasharray="4 3" opacity="0.2"/>
  <!-- Bar 6 -->
  <rect x="430" y="170" width="28" height="65" rx="2" fill="none" stroke="#22d3ee" stroke-width="1.5" stroke-dasharray="4 3" opacity="0.2"/>
  <line x1="444" y1="154" x2="444" y2="170" stroke="#22d3ee" stroke-width="1.5" stroke-dasharray="4 3" opacity="0.2"/>
  <line x1="444" y1="235" x2="444" y2="252" stroke="#22d3ee" stroke-width="1.5" stroke-dasharray="4 3" opacity="0.2"/>
  <!-- Bar 7 -->
  <rect x="480" y="185" width="28" height="55" rx="2" fill="none" stroke="#22d3ee" stroke-width="1.5" stroke-dasharray="4 3" opacity="0.2"/>
  <line x1="494" y1="166" x2="494" y2="185" stroke="#22d3ee" stroke-width="1.5" stroke-dasharray="4 3" opacity="0.2"/>
  <line x1="494" y1="240" x2="494" y2="258" stroke="#22d3ee" stroke-width="1.5" stroke-dasharray="4 3" opacity="0.2"/>

  <!-- Central icon: chart-up with question mark overlay -->
  <g transform="translate(270, 110)">
    <!-- Outer ring -->
    <circle cx="30" cy="30" r="30" fill="#0f1622" stroke="#22d3ee" stroke-width="1.5" opacity="0.5"/>
    <!-- Mini bar chart icon -->
    <rect x="12" y="34" width="7" height="12" rx="1" fill="#22d3ee" opacity="0.35"/>
    <rect x="22" y="26" width="7" height="20" rx="1" fill="#22d3ee" opacity="0.35"/>
    <rect x="32" y="20" width="7" height="26" rx="1" fill="#22d3ee" opacity="0.35"/>
    <rect x="42" y="28" width="7" height="18" rx="1" fill="#22d3ee" opacity="0.35"/>
    <!-- Slash / no-data overlay -->
    <line x1="14" y1="46" x2="46" y2="14" stroke="#64748b" stroke-width="1.5" stroke-linecap="round" opacity="0.6"/>
  </g>

  <!-- Primary label -->
  <text x="300" y="186" text-anchor="middle" font-family="'Space Grotesk', system-ui, sans-serif" font-size="15" font-weight="600" fill="#94a3b8" letter-spacing="0.02em">No chart data yet</text>

  <!-- Sub-label -->
  <text x="300" y="208" text-anchor="middle" font-family="'Space Grotesk', system-ui, sans-serif" font-size="12" fill="#475569">Price history will appear once trading begins</text>
</svg>
